<mxfile host="app.diagrams.net" modified="2024-08-05T17:06:26.044Z" agent="Mozilla/5.0 (Macintosh; Intel Mac OS X 10_15_7) AppleWebKit/537.36 (KHTML, like Gecko) Chrome/126.0.0.0 Safari/537.36" etag="hondMTSS_zPf2RWsBbEN" version="24.5.5" type="device">
  <diagram name="PÃ¡gina-1" id="jEJlueNB_Hy9ARoQwwkR">
    <mxGraphModel dx="1242" dy="791" grid="1" gridSize="10" guides="1" tooltips="1" connect="1" arrows="1" fold="1" page="1" pageScale="1" pageWidth="827" pageHeight="1169" math="0" shadow="0">
      <root>
        <mxCell id="0" />
        <mxCell id="1" parent="0" />
        <mxCell id="wjbrD59OpVcQSy0wxNtm-1" value="" style="html=1;shape=mxgraph.basic.isocube;isoAngle=15;" vertex="1" parent="1">
          <mxGeometry x="490" y="180" width="100" height="100" as="geometry" />
        </mxCell>
      </root>
    </mxGraphModel>
  </diagram>
</mxfile>
